<?xml version="1.0" standalone="no"?><!DOCTYPE svg PUBLIC "-//W3C//DTD SVG 1.1//EN" "http://www.w3.org/Graphics/SVG/1.1/DTD/svg11.dtd"><svg t="1748589386645" class="icon" viewBox="0 0 1024 1024" version="1.1" xmlns="http://www.w3.org/2000/svg" p-id="2717" xmlns:xlink="http://www.w3.org/1999/xlink" width="200" height="200"><path d="M240.224 600.736c-16.416 24.608-33.376 49.984-48.096 76.896a524.768 524.768 0 0 0-59.68 318.592 32 32 0 0 0 63.424-8.448 460.16 460.16 0 0 1 52.416-279.424c13.376-24.448 28.8-47.584 45.12-72.064 15.584-23.296 31.68-47.392 45.824-72.768 36.96-66.208 51.136-127.872 42.112-183.328-9.696-59.904-44.48-108.032-78.08-154.56-7.04-9.728-14.016-19.392-20.704-29.12-42.496-61.76-56-113.088-40.192-152.64A32 32 0 0 0 182.912 20.16c-24.256 60.672-8.448 132.224 46.912 212.64 6.976 10.144 14.24 20.224 21.536 30.336 30.624 42.368 59.52 82.4 66.816 127.36 6.624 40.864-5.088 88.576-34.816 141.856-12.928 23.136-27.616 45.12-43.136 68.416zM772.64 263.104c7.296-10.112 14.56-20.16 21.536-30.336 55.36-80.416 71.136-152 46.912-212.64a32 32 0 0 0-59.424 23.744c15.776 39.552 2.272 90.88-40.224 152.64-6.72 9.728-13.696 19.392-20.704 29.12-33.6 46.528-68.384 94.656-78.08 154.56-9.024 55.456 5.152 117.12 42.112 183.328 14.144 25.376 30.24 49.472 45.792 72.768 16.32 24.48 31.776 47.616 45.12 72.064a460.16 460.16 0 0 1 52.448 279.424 32 32 0 0 0 63.424 8.448 524.768 524.768 0 0 0-59.68-318.592c-14.72-26.88-31.68-52.288-48.096-76.896-15.52-23.264-30.208-45.28-43.136-68.416-29.76-53.28-41.44-100.992-34.816-141.856 7.296-44.96 36.192-84.992 66.816-127.36zM496 1008a16 16 0 1 0 32 0c0-44.096 28.704-80 64-80a16 16 0 1 0 0-32c-33.408 0-62.784 20.064-80 50.304-17.216-30.24-46.592-50.304-80-50.304a16 16 0 1 0 0 32c35.296 0 64 35.904 64 80z" fill="#bfbfbf" p-id="2718"></path><path d="M992 384h-114.752l9.376-9.376a32 32 0 1 0-45.248-45.248l-64 64a32 32 0 0 0 0 45.248l64 64a31.904 31.904 0 0 0 45.248 0 32 32 0 0 0 0-45.248L877.248 448H992a32 32 0 0 0 0-64zM32 448h114.752l-9.376 9.376a32 32 0 1 0 45.248 45.248l64-64a32 32 0 0 0 0-45.248l-64-64a32 32 0 1 0-45.248 45.248l9.376 9.376H32a32 32 0 0 0 0 64z" fill="#bfbfbf" p-id="2719"></path></svg>