<?xml version="1.0" standalone="no"?><!DOCTYPE svg PUBLIC "-//W3C//DTD SVG 1.1//EN" "http://www.w3.org/Graphics/SVG/1.1/DTD/svg11.dtd"><svg t="1740550875230" class="icon" viewBox="0 0 1024 1024" version="1.1" xmlns="http://www.w3.org/2000/svg" p-id="8386" xmlns:xlink="http://www.w3.org/1999/xlink" width="200" height="200"><path d="M501.12 853.12c-0.64 0-0.64-0.64-1.28-0.64l3.84 1.92c-0.64 0-1.28-0.64-2.56-1.28zM503.68 855.04c0.64 0 0.64 0 0 0zM504.32 855.04c2.56 1.28 3.2 1.92 3.2 1.92s-1.28-0.64-3.2-1.92zM649.6 324.48c-5.76-7.04-10.88-14.72-16-20.48 16.64-29.44 29.44-56.32 33.28-64-0.64-6.4-5.12-53.12-13.44-99.2-8.32-46.72-19.84-92.16-24.32-101.12-1.28-2.56-4.48-3.2-4.48-3.2s-2.56 49.92-8.96 102.4c-5.76 53.12-16.64 107.52-19.2 120.32-1.92 10.24-9.6 48-22.4 83.2-8.96 25.6-19.2 50.56-26.24 65.28-6.4-7.68-11.52-13.44-15.36-16.64-2.56-1.92-5.12-1.28-5.12-1.28s0.64 0.64 0.64 2.56c0.64 1.28 1.28 3.84 2.56 7.04 2.56 6.4 5.76 15.36 8.96 26.24 7.04 22.4 15.36 53.12 21.76 84.48 5.76 31.36 8.96 64.64 5.76 87.68-1.28 12.16-3.84 23.68-6.4 32.64-1.92 8.96-3.84 16-4.48 19.84-1.28 5.76-4.48 20.48-8.96 38.4s-10.88 40.32-17.92 62.08c-13.44 43.52-28.8 87.04-32.64 96.64-0.64 1.28-0.64 1.92 0 2.56 0 0.64 0.64 0.64 0.64 1.28 0 0 0 0.64 0.64 0.64-0.64 0 0.64 0 1.28 0.64h-0.64s0-0.64 0.64-0.64c0-0.64 0.64-0.64 0.64-1.28 0.64-0.64 0.64-1.92 1.28-2.56 1.92-3.84 5.12-10.88 8.96-19.2 7.68-17.28 19.2-42.24 33.28-72.32 13.44-30.72 30.08-66.56 46.08-107.52 1.92-5.12 3.84-10.24 5.76-16 1.92-5.12 3.84-10.88 5.12-16.64 0.64-2.56 1.92-5.76 2.56-8.32 0.64-3.2 1.28-5.76 1.92-8.96 1.28-6.4 2.56-12.16 3.2-18.56 1.92-16 2.56-32 3.2-48.64 4.48-5.12 8.96-10.24 13.44-16 7.04-8.32 14.72-16.64 23.04-26.24 3.84-5.12 8.32-9.6 12.16-15.36 3.84-5.12 7.68-11.52 9.6-18.56 4.48-14.08 5.12-30.08 5.76-46.08 0.64-16 1.28-32.64 2.56-48.64-5.76-7.04-17.28-21.76-28.16-36.48z m-85.76 79.36c12.16-14.08 27.52-33.92 42.24-55.68 5.12-7.68 10.24-16 15.36-23.68 1.92 11.52 3.84 24.32 6.4 38.4h-1.92c0-0.64-4.48 19.84-14.08 39.04-4.48 9.6-10.24 19.84-15.36 27.52-5.12 7.68-9.6 12.8-11.52 15.36-1.28 1.92-3.2 3.84-5.12 6.4l-0.64 0.64c-1.92-3.2-3.84-5.76-5.76-8.96-7.04-10.24-13.44-19.2-20.48-27.52 3.84-3.84 7.04-7.68 10.88-11.52z m83.84 53.12h-3.2c-1.28 0-2.56 0-3.84-0.64-1.28 0-1.92 0-2.56-0.64 0.64-1.28-1.92 7.04-6.4 16.64-4.48 10.24-11.52 22.4-18.56 35.2-0.64 0.64-0.64 1.28-1.28 1.92v-7.04c-5.12-8.32-12.8-22.4-22.4-37.76 8.96-5.76 19.84-13.44 28.8-22.4 7.68-7.68 14.72-15.36 19.84-23.04 0.64 3.2 0.64 6.4 1.28 8.96 0.64 7.68 0.64 14.72 0.64 19.2v3.2c0 0.64 0 1.92-0.64 2.56v1.92c-3.2 0.64 16.64 2.56 8.32 1.92z" p-id="8387"></path><path d="M518.4 631.04c5.76-5.12 12.16-10.24 17.28-16.64 1.28-1.28 2.56-3.2 3.84-5.12 1.28-1.92 2.56-3.84 3.2-5.76 1.28-1.92 1.92-4.48 1.92-7.04 0.64-2.56 0.64-4.48 0.64-6.4 1.28-15.36 0.64-26.88 0.64-32.64 0.64-11.52-11.52-33.28-22.4-53.12-2.56-5.12-5.12-9.6-7.68-14.08 3.2-6.4 5.76-11.52 7.68-14.72 5.76-10.88 4.48-38.4 0-62.08-1.92-12.16-4.48-23.04-7.04-31.36-2.56-8.32-3.84-13.44-3.84-13.44s-1.28 8.32-3.84 21.76c-2.56 13.44-7.04 30.72-12.16 49.28-5.12 17.92-10.24 36.48-16 51.2-1.28 3.84-2.56 7.04-3.84 8.96-0.64 1.28-1.28 1.92-1.92 3.2-0.64 1.28-1.28 1.92-1.92 3.2l-6.4 9.6c-4.48 8.32-14.08 24.32-23.04 37.76-2.56 4.48-5.76 8.32-8.32 12.16-3.84-5.76-7.68-9.6-10.88-12.16-2.56-1.92-5.12-0.64-5.12-0.64s1.28 2.56 2.56 8.32c1.28 3.84 2.56 9.6 4.48 16.64 0 0.64-0.64 0.64-0.64 0.64l0.64-0.64c0.64 2.56 1.28 5.12 1.92 8.32 4.48 21.76 8.32 51.2 9.6 81.92 0.64 15.36 0.64 30.72 0 44.8 0 3.84-0.64 7.04-0.64 10.24-0.64 3.2-0.64 7.04-1.28 10.24-1.28 6.4-1.92 12.16-3.84 18.56-2.56 11.52-6.4 22.4-8.32 30.72-3.2 8.32-5.12 14.72-5.76 18.56-3.2 11.52-16.64 52.48-33.28 92.8-16.64 40.32-35.84 79.36-39.68 88.96-1.92 4.48 0.64 5.76 0.64 5.76s5.12-8.32 14.08-23.68c8.96-15.36 22.4-37.76 38.4-65.28 16-27.52 34.56-60.16 53.12-98.56 8.96-19.2 17.92-39.04 24.96-62.72 6.4-23.04 10.88-47.36 13.44-72.32-1.28-3.2-3.2-7.04-5.12-11.52 10.24-6.4 22.4-14.08 33.92-23.68z m-3.2-35.84l-1.28 2.56c-0.64 1.28-1.28 2.56-2.56 3.84-0.64 1.28-1.28 2.56-1.92 3.2-3.84 7.04-12.16 22.4-21.76 35.2-1.92 2.56-3.2 4.48-5.12 7.04-3.84-8.96-8.96-19.84-14.08-30.72 8.32-3.84 17.28-9.6 24.96-15.36 7.68-5.76 14.72-12.16 20.48-17.92 0 1.28 0.64 3.2 0.64 4.48v4.48c0.64 1.28 0.64 2.56 0.64 3.2z m-71.68-28.8c8.96-6.4 21.12-16 33.28-26.24 10.24-8.96 20.48-18.56 28.16-30.08 0.64 6.4 1.28 13.44 1.92 20.48h-1.28c0.64-1.28-5.12 16-15.36 32-9.6 16.64-24.32 31.36-27.52 35.2-0.64 0.64-1.28 1.92-2.56 3.2-6.4-12.16-13.44-23.68-19.84-32.64 1.28-0.64 1.92-1.28 3.2-1.92z" p-id="8388"></path></svg>