<?xml version="1.0" encoding="utf-8" standalone="yes"?>
<!DOCTYPE svg PUBLIC "-//W3C//DTD SVG 1.1//EN" "http://www.w3.org/Graphics/SVG/1.1/DTD/svg11.dtd">
<svg width="626" height="542" viewBox="0 0 626 542" style="fill:none;stroke:none;fill-rule:evenodd;clip-rule:evenodd;stroke-linecap:round;stroke-linejoin:round;stroke-miterlimit:1.5;" version="1.1" xmlns="http://www.w3.org/2000/svg" xmlns:xlink="http://www.w3.org/1999/xlink"><style class="text-font-style fontImports" data-font-family="Roboto">@import url('https://fonts.googleapis.com/css2?family=Roboto:wght@400;700&amp;display=block');</style><rect id="" x="0" y="0" width="626" height="542" style="fill: #2c2c2c;"></rect><g id="items" style="isolation: isolate"><g id="blend" style="mix-blend-mode: normal"><g id="g-root-tf_1lrrr7hp0xp8l-fill" data-item-order="-336960" transform="translate(-9, -9)"><g id="tf_1lrrr7hp0xp8l-fill" stroke="none" fill="#2c2c2c"><g><path d="M 10 10L 634 10L 634 550L 10 550Z"></path></g></g></g><g id="g-root-ro_18fool9p11yj3-fill" data-item-order="-25200" transform="translate(219, 135)"><g id="ro_18fool9p11yj3-fill" stroke="none" fill="#e8e8e8"><g><path d="M 34 10L 154 10C 154 10 178 10 178 34L 178 136C 178 136 178 160 154 160L 34 160C 34 160 10 160 10 136L 10 34C 10 34 10 10 34 10"></path></g></g></g><g id="g-root-ro_mdkynxp1em0x-fill" data-item-order="-8424" transform="translate(225, 321)"><g id="ro_mdkynxp1em0x-fill" stroke="none" fill="#ffe711"><g><path d="M 22 10L 154 10C 154 10 166 10 166 22L 166 52C 166 52 166 64 154 64L 22 64C 22 64 10 64 10 52L 10 22C 10 22 10 10 22 10"></path></g></g></g><g id="g-root-ro_9lwn1p0wcn9-fill" data-item-order="-8424" transform="translate(15, 123)"><g id="ro_9lwn1p0wcn9-fill" stroke="none" fill="#4f91fc"><g><path d="M 22 10L 154 10C 154 10 166 10 166 22L 166 52C 166 52 166 64 154 64L 22 64C 22 64 10 64 10 52L 10 22C 10 22 10 10 22 10"></path></g></g></g><g id="g-root-ro_qs5im5p1aexa-fill" data-item-order="-8424" transform="translate(435, 123)"><g id="ro_qs5im5p1aexa-fill" stroke="none" fill="#cb68f9"><g><path d="M 22 10L 154 10C 154 10 166 10 166 22L 166 52C 166 52 166 64 154 64L 22 64C 22 64 10 64 10 52L 10 22C 10 22 10 10 22 10"></path></g></g></g><g id="g-root-tx__1463xbxp1elu2-fill" data-item-order="0" transform="translate(273, 459)"><g id="tx__1463xbxp1elu2-fill" stroke="none" fill="#f4f4f4"><g><text style="font: 20px Roboto, sans-serif; white-space: pre;" font-size="20px" font-family="Roboto, sans-serif"><tspan x="14" y="34" dominant-baseline="ideographic">多语言支持</tspan></text></g></g></g><g id="g-root-cu_1lpwby5p0xpfq-fill" data-item-order="0" transform="translate(171, 150)"></g><g id="g-root-tx__1hhkfp9p1ek94-fill" data-item-order="0" transform="translate(273, 387)"><g id="tx__1hhkfp9p1ek94-fill" stroke="none" fill="#f4f4f4"><g><text style="font: 20px Roboto, sans-serif; white-space: pre;" font-size="20px" font-family="Roboto, sans-serif"><tspan x="12" y="34" dominant-baseline="ideographic">对话优化</tspan></text></g></g></g><g id="g-root-cu_18eftktp0xr0p-fill" data-item-order="0" transform="translate(387, 150)"></g><g id="g-root-tx__dikfi5p1ejnu-fill" data-item-order="0" transform="translate(15, 189)"><g id="tx__dikfi5p1ejnu-fill" stroke="none" fill="#f4f4f4"><g><text style="font: 20px Roboto, sans-serif; white-space: pre;" font-size="20px" font-family="Roboto, sans-serif"><tspan x="14" y="34" dominant-baseline="ideographic">零样本克隆</tspan></text></g></g></g><g id="g-root-cu_13ymbgdp0xrt3-fill" data-item-order="0" transform="translate(129, 177)"></g><g id="g-root-cu_qnsa65p0xq8a-fill" data-item-order="0" transform="translate(129, 177)"></g><g id="g-root-cu_qnsa65p0xq8c-fill" data-item-order="0" transform="translate(129, 177)"></g><g id="g-root-cu_m7ys1pp0xr0m-fill" data-item-order="0" transform="translate(459, 177)"></g><g id="g-root-cu_m7ys1pp0xr0p-fill" data-item-order="0" transform="translate(459, 177)"></g><g id="g-root-cu_hs59x9p0xrsz-fill" data-item-order="0" transform="translate(459, 177)"></g><g id="g-root-tx__1d1qxktp1el1d-fill" data-item-order="0" transform="translate(273, 423)"><g id="tx__1d1qxktp1el1d-fill" stroke="none" fill="#f4f4f4"><g><text style="font: 20px Roboto, sans-serif; white-space: pre;" font-size="20px" font-family="Roboto, sans-serif"><tspan x="12" y="34" dominant-baseline="ideographic">情感表达</tspan></text></g></g></g><g id="g-root-tx__1usegzhp1eltx-fill" data-item-order="0" transform="translate(483, 189)"><g id="tx__1usegzhp1eltx-fill" stroke="none" fill="#f4f4f4"><g><text style="font: 20px Roboto, sans-serif; white-space: pre;" font-size="20px" font-family="Roboto, sans-serif"><tspan x="12" y="34" dominant-baseline="ideographic">拼音控制</tspan></text></g></g></g><g id="g-root-tx__92qxdpp1ekg3-fill" data-item-order="0" transform="translate(15, 225)"><g id="tx__92qxdpp1ekg3-fill" stroke="none" fill="#f4f4f4"><g><text style="font: 20px Roboto, sans-serif; white-space: pre;" font-size="20px" font-family="Roboto, sans-serif"><tspan x="14" y="34" dominant-baseline="ideographic">多语言支持</tspan></text></g></g></g><g id="g-root-tx__1lwrgqlp1emmm-fill" data-item-order="0" transform="translate(483, 225)"><g id="tx__1lwrgqlp1emmm-fill" stroke="none" fill="#f4f4f4"><g><text style="font: 20px Roboto, sans-serif; white-space: pre;" font-size="20px" font-family="Roboto, sans-serif"><tspan x="12" y="34" dominant-baseline="ideographic">模块优化</tspan></text></g></g></g><g id="g-root-tx__73x4tp1el8s-fill" data-item-order="0" transform="translate(15, 261)"><g id="tx__73x4tp1el8s-fill" stroke="none" fill="#f4f4f4"><g><text style="font: 20px Roboto, sans-serif; white-space: pre;" font-size="20px" font-family="Roboto, sans-serif"><tspan x="14" y="34" dominant-baseline="ideographic">细粒度控制</tspan></text></g></g></g><g id="g-root-tx__1lwrgqlp1emmn-fill" data-item-order="0" transform="translate(483, 261)"><g id="tx__1lwrgqlp1emmn-fill" stroke="none" fill="#f4f4f4"><g><text style="font: 20px Roboto, sans-serif; white-space: pre;" font-size="20px" font-family="Roboto, sans-serif"><tspan x="14" y="34" dominant-baseline="ideographic">大规模训练</tspan></text></g></g></g><g id="g-root-cu_18eftktp0xr0s-fill" data-item-order="0" transform="translate(303, 285)"></g><g id="g-root-tx_tts_4hb8n1p0xq8c-fill" data-item-order="0" transform="translate(171, 39)"><g id="tx_tts_4hb8n1p0xq8c-fill" stroke="none" fill="#f4f4f4"><g><text style="font: 25px Roboto, sans-serif; white-space: pre;" font-size="25px" font-family="Roboto, sans-serif"><tspan x="13.45" y="42" dominant-baseline="ideographic">三大开源 TTS 工具比较</tspan></text></g></g></g><g id="g-root-cu_dcy8vxp0xpfm-fill" data-item-order="0" transform="translate(249, 375)"></g><g id="g-root-cu_hs59x9p0xrt1-fill" data-item-order="0" transform="translate(249, 375)"></g><g id="g-root-cu_dcy8vxp0xpfk-fill" data-item-order="0" transform="translate(249, 375)"></g><g id="g-root-1_4pferhp0wbv0-fill" data-item-order="1000000000" transform="translate(129, 135)"></g><g id="g-root-t_znsiv1p1ae4l-fill" data-item-order="1000000000" transform="translate(447, 135)"></g><g id="g-root-scri_1lr56ylp11wy6-fill" data-item-order="1000000000" transform="translate(279, 159)"></g><g id="g-root-tx_indextts_1heg29pp1aex8-fill" data-item-order="1000000000" transform="translate(483, 138)"><g id="tx_indextts_1heg29pp1aex8-fill" stroke="none" fill="#2c2c2c"><g><text style="font: 20px Roboto, sans-serif; white-space: pre;" font-size="20px" font-family="Roboto, sans-serif"><tspan x="13.22" y="34" dominant-baseline="ideographic">Index-TTS</tspan></text></g></g></g><g id="g-root-tx_tts_8wi6ilp11xxh-fill" data-item-order="1000000000" transform="translate(243, 213)"><g id="tx_tts_8wi6ilp11xxh-fill" stroke="none" fill="#2c2c2c"><g><text style="font: 20px Roboto, sans-serif; white-space: pre;" font-size="20px" font-family="Roboto, sans-serif"><tspan x="17.16" y="34" dominant-baseline="ideographic">开源 TTS 工</tspan><tspan x="60.01" y="58" dominant-baseline="ideographic">具</tspan></text></g></g></g><g id="g-root-tx_sparktts_qvwgalp0wcn7-fill" data-item-order="1000000000" transform="translate(27, 138)"><g id="tx_sparktts_qvwgalp0wcn7-fill" stroke="none" fill="#2c2c2c"><g><text style="font: 20px Roboto, sans-serif; white-space: pre;" font-size="20px" font-family="Roboto, sans-serif"><tspan x="11.91" y="34" dominant-baseline="ideographic">Spark-TTS</tspan></text></g></g></g><g id="g-root-spee_zp1h19p1ekg0-fill" data-item-order="1000000000" transform="translate(237, 333)"></g><g id="g-root-tx_chattts_18k2071p1em1b-fill" data-item-order="1000000000" transform="translate(273, 336)"><g id="tx_chattts_18k2071p1em1b-fill" stroke="none" fill="#2c2c2c"><g><text style="font: 20px Roboto, sans-serif; white-space: pre;" font-size="20px" font-family="Roboto, sans-serif"><tspan x="16.63" y="34" dominant-baseline="ideographic">Chat-TTS</tspan></text></g></g></g><g id="g-root-tf_1lrrr7hp0xp8l-stroke" data-item-order="-336960" transform="translate(-9, -9)"></g><g id="g-root-ro_18fool9p11yj3-stroke" data-item-order="-25200" transform="translate(219, 135)"><g id="ro_18fool9p11yj3-stroke" fill="none" stroke-linecap="round" stroke-linejoin="round" stroke-miterlimit="4" stroke="#2c2c2c" stroke-width="2"><g><path d="M 34 10L 154 10C 154 10 178 10 178 34L 178 136C 178 136 178 160 154 160L 34 160C 34 160 10 160 10 136L 10 34C 10 34 10 10 34 10"></path></g></g></g><g id="g-root-ro_mdkynxp1em0x-stroke" data-item-order="-8424" transform="translate(225, 321)"><g id="ro_mdkynxp1em0x-stroke" fill="none" stroke-linecap="round" stroke-linejoin="round" stroke-miterlimit="4" stroke="#2c2c2c" stroke-width="2"><g><path d="M 22 10L 154 10C 154 10 166 10 166 22L 166 52C 166 52 166 64 154 64L 22 64C 22 64 10 64 10 52L 10 22C 10 22 10 10 22 10"></path></g></g></g><g id="g-root-ro_9lwn1p0wcn9-stroke" data-item-order="-8424" transform="translate(15, 123)"><g id="ro_9lwn1p0wcn9-stroke" fill="none" stroke-linecap="round" stroke-linejoin="round" stroke-miterlimit="4" stroke="#2c2c2c" stroke-width="2"><g><path d="M 22 10L 154 10C 154 10 166 10 166 22L 166 52C 166 52 166 64 154 64L 22 64C 22 64 10 64 10 52L 10 22C 10 22 10 10 22 10"></path></g></g></g><g id="g-root-ro_qs5im5p1aexa-stroke" data-item-order="-8424" transform="translate(435, 123)"><g id="ro_qs5im5p1aexa-stroke" fill="none" stroke-linecap="round" stroke-linejoin="round" stroke-miterlimit="4" stroke="#2c2c2c" stroke-width="2"><g><path d="M 22 10L 154 10C 154 10 166 10 166 22L 166 52C 166 52 166 64 154 64L 22 64C 22 64 10 64 10 52L 10 22C 10 22 10 10 22 10"></path></g></g></g><g id="g-root-tx__1463xbxp1elu2-stroke" data-item-order="0" transform="translate(273, 459)"></g><g id="g-root-cu_1lpwby5p0xpfq-stroke" data-item-order="0" transform="translate(171, 150)"><g id="cu_1lpwby5p0xpfq-stroke" fill="none" stroke-linecap="round" stroke-linejoin="round" stroke-miterlimit="4" stroke="#f4f4f4" stroke-width="2" stroke-dasharray="5.0, 7.0"><g><path d="M 58 45L 55 45L 54.9 45C 50.422131 44.972593 45.63978 43.214375 41.299999 40C 38.67988 38.118536 36.018569 33.561496 33.999999 27.499999C 31.98143 21.438501 29.320119 16.881461 26.699999 15C 22.360218 11.785625 17.577867 10.027408 13.1 10L 13 10L 10 10"></path></g></g></g><g id="g-root-tx__1hhkfp9p1ek94-stroke" data-item-order="0" transform="translate(273, 387)"></g><g id="g-root-cu_18eftktp0xr0p-stroke" data-item-order="0" transform="translate(387, 150)"><g id="cu_18eftktp0xr0p-stroke" fill="none" stroke-linecap="round" stroke-linejoin="round" stroke-miterlimit="4" stroke="#f4f4f4" stroke-width="2" stroke-dasharray="5.0, 7.0"><g><path d="M 10 45L 13 45L 13.1 45C 17.577866 44.972592 22.360217 43.214375 26.699999 40C 29.320119 38.118536 31.98143 33.561497 33.999999 27.499999C 36.018569 21.438502 38.67988 16.881462 41.299999 15C 45.63978 11.785625 50.422131 10.027407 54.899998 9.999999L 55 10L 58 10"></path></g></g></g><g id="g-root-tx__dikfi5p1ejnu-stroke" data-item-order="0" transform="translate(15, 189)"></g><g id="g-root-cu_13ymbgdp0xrt3-stroke" data-item-order="0" transform="translate(129, 177)"><g id="cu_13ymbgdp0xrt3-stroke" fill="none" stroke-linecap="round" stroke-linejoin="round" stroke-miterlimit="4" stroke="#f4f4f4" stroke-width="2" stroke-dasharray="5.0, 7.0"><g><path d="M 28 10L 28 22L 28 34L 19 34L 10 34"></path></g></g></g><g id="g-root-cu_qnsa65p0xq8a-stroke" data-item-order="0" transform="translate(129, 177)"><g id="cu_qnsa65p0xq8a-stroke" fill="none" stroke-linecap="round" stroke-linejoin="round" stroke-miterlimit="4" stroke="#f4f4f4" stroke-width="2" stroke-dasharray="5.0, 7.0"><g><path d="M 28 10L 28 40L 28 70L 19 70L 10 70"></path></g></g></g><g id="g-root-cu_qnsa65p0xq8c-stroke" data-item-order="0" transform="translate(129, 177)"><g id="cu_qnsa65p0xq8c-stroke" fill="none" stroke-linecap="round" stroke-linejoin="round" stroke-miterlimit="4" stroke="#f4f4f4" stroke-width="2" stroke-dasharray="5.0, 7.0"><g><path d="M 28 10L 28 22L 28 94C 28.000002 100.627415 22.627419 105.999998 16.000002 105.999998L 15.9 106L 10 106"></path></g></g></g><g id="g-root-cu_m7ys1pp0xr0m-stroke" data-item-order="0" transform="translate(459, 177)"><g id="cu_m7ys1pp0xr0m-stroke" fill="none" stroke-linecap="round" stroke-linejoin="round" stroke-miterlimit="4" stroke="#f4f4f4" stroke-width="2" stroke-dasharray="5.0, 7.0"><g><path d="M 10 10L 10 22L 10 34L 19 34L 28 34"></path></g></g></g><g id="g-root-cu_m7ys1pp0xr0p-stroke" data-item-order="0" transform="translate(459, 177)"><g id="cu_m7ys1pp0xr0p-stroke" fill="none" stroke-linecap="round" stroke-linejoin="round" stroke-miterlimit="4" stroke="#f4f4f4" stroke-width="2" stroke-dasharray="5.0, 7.0"><g><path d="M 10 10L 10 40L 10 70L 19 70L 28 70"></path></g></g></g><g id="g-root-cu_hs59x9p0xrsz-stroke" data-item-order="0" transform="translate(459, 177)"><g id="cu_hs59x9p0xrsz-stroke" fill="none" stroke-linecap="round" stroke-linejoin="round" stroke-miterlimit="4" stroke="#f4f4f4" stroke-width="2" stroke-dasharray="5.0, 7.0"><g><path d="M 10 10L 10 22L 10 94C 10.000004 100.627423 15.372587 106.000006 22.000005 106.000005L 22.1 106L 28 106"></path></g></g></g><g id="g-root-tx__1d1qxktp1el1d-stroke" data-item-order="0" transform="translate(273, 423)"></g><g id="g-root-tx__1usegzhp1eltx-stroke" data-item-order="0" transform="translate(483, 189)"></g><g id="g-root-tx__92qxdpp1ekg3-stroke" data-item-order="0" transform="translate(15, 225)"></g><g id="g-root-tx__1lwrgqlp1emmm-stroke" data-item-order="0" transform="translate(483, 225)"></g><g id="g-root-tx__73x4tp1el8s-stroke" data-item-order="0" transform="translate(15, 261)"></g><g id="g-root-tx__1lwrgqlp1emmn-stroke" data-item-order="0" transform="translate(483, 261)"></g><g id="g-root-cu_18eftktp0xr0s-stroke" data-item-order="0" transform="translate(303, 285)"><g id="cu_18eftktp0xr0s-stroke" fill="none" stroke-linecap="round" stroke-linejoin="round" stroke-miterlimit="4" stroke="#f4f4f4" stroke-width="2" stroke-dasharray="5.0, 7.0"><g><path d="M 10 10L 10 28L 10 46"></path></g></g></g><g id="g-root-tx_tts_4hb8n1p0xq8c-stroke" data-item-order="0" transform="translate(171, 39)"></g><g id="g-root-cu_dcy8vxp0xpfm-stroke" data-item-order="0" transform="translate(249, 375)"><g id="cu_dcy8vxp0xpfm-stroke" fill="none" stroke-linecap="round" stroke-linejoin="round" stroke-miterlimit="4" stroke="#f4f4f4" stroke-width="2" stroke-dasharray="5.0, 7.0"><g><path d="M 10 10L 10 22L 10 94C 10.000004 100.627423 15.372587 106.000006 22.000005 106.000005L 22.1 106L 28 106"></path></g></g></g><g id="g-root-cu_hs59x9p0xrt1-stroke" data-item-order="0" transform="translate(249, 375)"><g id="cu_hs59x9p0xrt1-stroke" fill="none" stroke-linecap="round" stroke-linejoin="round" stroke-miterlimit="4" stroke="#f4f4f4" stroke-width="2" stroke-dasharray="5.0, 7.0"><g><path d="M 10 10L 10 22L 10 34L 19 34L 28 34"></path></g></g></g><g id="g-root-cu_dcy8vxp0xpfk-stroke" data-item-order="0" transform="translate(249, 375)"><g id="cu_dcy8vxp0xpfk-stroke" fill="none" stroke-linecap="round" stroke-linejoin="round" stroke-miterlimit="4" stroke="#f4f4f4" stroke-width="2" stroke-dasharray="5.0, 7.0"><g><path d="M 10 10L 10 40L 10 70L 19 70L 28 70"></path></g></g></g><g id="g-root-1_4pferhp0wbv0-stroke" data-item-order="1000000000" transform="translate(129, 135)"><g id="1_4pferhp0wbv0-stroke" fill="none" stroke-linecap="round" stroke-linejoin="round" stroke-miterlimit="4" stroke="#2c2c2c" stroke-width="2"><g><path d="M 10.62625 25C 10.62625 32.939095 17.062157 39.375 25.001251 39.375C 32.940342 39.375 39.376251 32.939095 39.376251 25C 39.376251 17.060907 32.940342 10.625 25.001251 10.625C 17.062157 10.625 10.62625 17.060907 10.62625 25ZM 30.313749 25C 28.391096 24.999954 26.618504 23.961082 25.678932 22.283642C 24.739357 20.606201 24.779446 18.552004 25.783751 16.9125C 25.526249 16.88875 25.264999 16.875 25.001251 16.875C 20.513775 16.87431 16.875462 20.51169 16.875002 24.999166C 16.87454 29.486643 20.512108 33.124771 24.999584 33.125C 29.487061 33.125233 33.125 29.487476 33.125 25C 33.125 24.735834 33.112499 24.475418 33.087498 24.21875C 32.252975 24.730709 31.292797 25.001152 30.313749 25Z"></path></g></g></g><g id="g-root-t_znsiv1p1ae4l-stroke" data-item-order="1000000000" transform="translate(447, 135)"><g id="t_znsiv1p1ae4l-stroke" fill="none" stroke-linecap="round" stroke-linejoin="round" stroke-miterlimit="4" stroke="#2c2c2c" stroke-width="2"><g><path d="M 10.625 33.285C 10.96811 36.452179 13.678705 38.829494 16.863579 38.756519C 20.04845 38.683544 22.647316 36.18457 22.844999 33.004997L 22.85125 32.901249C 22.935476 30.919319 24.046932 29.124691 25.783751 28.16625C 28.723248 26.522116 30.551498 23.424259 30.57 20.05625C 30.552361 15.210196 26.88089 11.158527 22.059999 10.665C 18.362555 10.319119 14.809458 12.188318 13 15.431251M 15.875 17.875C 17.384655 17.242729 19.110476 17.407228 20.473497 18.313314C 21.836521 19.219402 22.656179 20.74704 22.657501 22.383751C 22.660933 23.611685 22.216509 24.798738 21.407501 25.7225M 12.658751 25.66625C 12.658751 28.082497 14.617504 30.041252 17.033751 30.041252C 19.449997 30.041252 21.408751 28.082497 21.408751 25.666252C 21.408751 23.250006 19.449997 21.291252 17.033751 21.291252C 14.617504 21.291252 12.658751 23.250006 12.658751 25.666252ZM 15.9925 21.41625C 15.711479 20.787027 15.567054 20.105375 15.56875 19.41625C 15.581148 16.66724 17.819742 14.448795 20.56875 14.46125C 25.557501 14.46125 27.549999 21.223751 24.51375 25.27375L 23.283751 26.9125M 34.605 21.875L 34.605 21.875C 35.759968 23.79826 35.759968 26.20174 34.605 28.125L 34.605 28.125M 37.990002 20L 37.990002 20C 39.836174 23.077705 39.836174 26.922293 37.990002 30L 37.990002 30M 37.5 39.375L 37.5 34.375M 39.375 34.375L 35.625 34.375"></path></g></g></g><g id="g-root-scri_1lr56ylp11wy6-stroke" data-item-order="1000000000" transform="translate(279, 159)"><g id="scri_1lr56ylp11wy6-stroke" fill="none" stroke-linecap="round" stroke-linejoin="round" stroke-miterlimit="4" stroke="#2c2c2c" stroke-width="2"><g><path d="M 13 11L 55 11C 55 11 57 11 57 13L 57 55C 57 55 57 57 55 57L 13 57C 13 57 11 57 11 55L 11 13C 11 13 11 11 13 11M 41 46C 41 48.761425 43.238575 51 46 51C 48.761425 51 51 48.761425 51 46C 51 43.240002 49 42 46 41C 43 40 41 38.760002 41 36C 41 33.238579 43.238575 31 46 31C 48.761425 31 51 33.238579 51 36M 24 31L 36 31M 30 31L 30 51"></path></g></g></g><g id="g-root-tx_indextts_1heg29pp1aex8-stroke" data-item-order="1000000000" transform="translate(483, 138)"></g><g id="g-root-tx_tts_8wi6ilp11xxh-stroke" data-item-order="1000000000" transform="translate(243, 213)"></g><g id="g-root-tx_sparktts_qvwgalp0wcn7-stroke" data-item-order="1000000000" transform="translate(27, 138)"></g><g id="g-root-spee_zp1h19p1ekg0-stroke" data-item-order="1000000000" transform="translate(237, 333)"><g id="spee_zp1h19p1ekg0-stroke" fill="none" stroke-linecap="round" stroke-linejoin="round" stroke-miterlimit="4" stroke="#2c2c2c" stroke-width="2"><g><path d="M 20.518749 18.125L 20.518749 12.0675C 20.518749 11.270829 21.164579 10.625 21.96125 10.625L 37.826248 10.625C 38.622921 10.625 39.268753 11.270829 39.268753 12.0675L 39.268753 22.932499C 39.268753 23.72917 38.622921 24.375 37.826248 24.375L 30.975 24.375L 25.56625 28.125L 25.56625 24.375L 23.21125 24.375M 24.31625 14.375L 35.470001 14.375M 24.31625 17.5L 35.470001 17.5M 24.31625 20.625L 31.33625 20.625M 25.463751 38.036251C 25.463062 38.775337 24.864086 39.37431 24.125 39.375L 12.07125 39.375C 11.331676 39.375 10.73194 38.775822 10.73125 38.036251L 10.73125 34.6875C 10.73125 30.619232 14.029233 27.321251 18.0975 27.321251C 22.165768 27.321251 25.463751 30.619232 25.463751 34.6875ZM 15.285 31.875C 15.285 32.047588 15.424911 32.1875 15.5975 32.1875C 15.770089 32.1875 15.91 32.047588 15.91 31.875C 15.91 31.702412 15.770089 31.5625 15.5975 31.5625C 15.424911 31.5625 15.285 31.702412 15.285 31.875M 20.285 31.8675C 20.285 32.040089 20.424911 32.18 20.5975 32.18C 20.770088 32.18 20.91 32.040089 20.91 31.8675C 20.91 31.69491 20.770088 31.555 20.5975 31.555C 20.424911 31.555 20.285 31.69491 20.285 31.8675M 18.0975 27.321251L 18.0975 24.6425M 16.088749 22.633751C 16.088751 23.743153 16.988098 24.642502 18.0975 24.642502C 19.206902 24.642502 20.106251 23.743153 20.106251 22.633751C 20.106251 21.524349 19.206902 20.625 18.0975 20.625C 16.988098 20.625 16.088751 21.524349 16.088751 22.633751M 10.73125 36.018749L 25.463751 36.018749"></path></g></g></g><g id="g-root-tx_chattts_18k2071p1em1b-stroke" data-item-order="1000000000" transform="translate(273, 336)"></g></g></g></svg>