<?xml version="1.0" encoding="utf-8" standalone="yes"?>
<!DOCTYPE svg PUBLIC "-//W3C//DTD SVG 1.1//EN" "http://www.w3.org/Graphics/SVG/1.1/DTD/svg11.dtd">
<svg width="638" height="608" viewBox="0 0 638 608" style="fill:none;stroke:none;fill-rule:evenodd;clip-rule:evenodd;stroke-linecap:round;stroke-linejoin:round;stroke-miterlimit:1.5;" version="1.1" xmlns="http://www.w3.org/2000/svg" xmlns:xlink="http://www.w3.org/1999/xlink"><style class="text-font-style fontImports" data-font-family="Roboto">@import url('https://fonts.googleapis.com/css2?family=Roboto:wght@400;700&amp;display=block');</style><rect id="" x="0" y="0" width="638" height="608" style="fill: #2c2c2c;"></rect><g id="items" style="isolation: isolate"><g id="blend" style="mix-blend-mode: normal"><g id="g-root-tf_5vbo8j7lqmn-fill" data-item-order="-385416" transform="translate(-9, -9)"><g id="tf_5vbo8j7lqmn-fill" stroke="none" fill="#2c2c2c"><g><path d="M 10 10L 646 10L 646 616L 10 616Z"></path></g></g></g><g id="g-root-ro_1lt0pg8j7n4lf-fill" data-item-order="-23400" transform="translate(207, 261)"><g id="ro_1lt0pg8j7n4lf-fill" stroke="none" fill="#e8e8e8"><g><path d="M 34 10L 142 10C 142 10 166 10 166 34L 166 136C 166 136 166 160 142 160L 34 160C 34 160 10 160 10 136L 10 34C 10 34 10 10 34 10"></path></g></g></g><g id="g-root-ro_3zt94j7d9mv-fill" data-item-order="-10368" transform="translate(335, 447)"><g id="ro_3zt94j7d9mv-fill" stroke="none" fill="#4f91fc"><g><path d="M 22 10L 190 10C 190 10 202 10 202 22L 202 52C 202 52 202 64 190 64L 22 64C 22 64 10 64 10 52L 10 22C 10 22 10 10 22 10"></path></g></g></g><g id="g-root-ro_1uua2mwj74utq-fill" data-item-order="-10368" transform="translate(411, 249)"><g id="ro_1uua2mwj74utq-fill" stroke="none" fill="#43dd93"><g><path d="M 22 10L 190 10C 190 10 202 10 202 22L 202 52C 202 52 202 64 190 64L 22 64C 22 64 10 64 10 52L 10 22C 10 22 10 10 22 10"></path></g></g></g><g id="g-root-ro_1cwrhlkj7bwna-fill" data-item-order="-9072" transform="translate(335, 135)"><g id="ro_1cwrhlkj7bwna-fill" stroke="none" fill="#a6da37"><g><path d="M 22 10L 166 10C 166 10 178 10 178 22L 178 52C 178 52 178 64 166 64L 22 64C 22 64 10 64 10 52L 10 22C 10 22 10 10 22 10"></path></g></g></g><g id="g-root-ro_1qa3f88j7lo95-fill" data-item-order="-7776" transform="translate(91, 123)"><g id="ro_1qa3f88j7lo95-fill" stroke="none" fill="#f79438"><g><path d="M 22 10L 142 10C 142 10 154 10 154 22L 154 52C 154 52 154 64 142 64L 22 64C 22 64 10 64 10 52L 10 22C 10 22 10 10 22 10"></path></g></g></g><g id="g-root-ro_13z923cj7hgr2-fill" data-item-order="-7776" transform="translate(91, 459)"><g id="ro_13z923cj7hgr2-fill" stroke="none" fill="#1ac3fb"><g><path d="M 22 10L 142 10C 142 10 154 10 154 22L 154 52C 154 52 154 64 142 64L 22 64C 22 64 10 64 10 52L 10 22C 10 22 10 10 22 10"></path></g></g></g><g id="g-root-ro_1qbcdegj7bw8z-fill" data-item-order="-7776" transform="translate(15, 237)"><g id="ro_1qbcdegj7bw8z-fill" stroke="none" fill="#f366bb"><g><path d="M 22 10L 142 10C 142 10 154 10 154 22L 154 52C 154 52 154 64 142 64L 22 64C 22 64 10 64 10 52L 10 22C 10 22 10 10 22 10"></path></g></g></g><g id="g-root-cu_1cymwuwj7lqm9-fill" data-item-order="0" transform="translate(311, 162)"></g><g id="g-root-tx__8zmwnsj7bv2n-fill" data-item-order="0" transform="translate(139, 189)"><g id="tx__8zmwnsj7bv2n-fill" stroke="none" fill="#f4f4f4"><g><text style="font: 20px Roboto, sans-serif; white-space: pre;" font-size="20px" font-family="Roboto, sans-serif"><tspan x="14" y="33.5" dominant-baseline="ideographic">部署</tspan></text></g></g></g><g id="g-root-cu_mcyuagj7lo8w-fill" data-item-order="0" transform="translate(193, 177)"></g><g id="g-root-cu_dhbu1kj7lp1n-fill" data-item-order="0" transform="translate(359, 189)"></g><g id="g-root-tx__4jtejcj7bvuw-fill" data-item-order="0" transform="translate(383, 201)"><g id="tx__4jtejcj7bvuw-fill" stroke="none" fill="#f4f4f4"><g><text style="font: 20px Roboto, sans-serif; white-space: pre;" font-size="20px" font-family="Roboto, sans-serif"><tspan x="14" y="33.5" dominant-baseline="ideographic">维护</tspan></text></g></g></g><g id="g-root-tx__91ibx4j7lpty-fill" data-item-order="0" transform="translate(141, 39)"><g id="tx__91ibx4j7lpty-fill" stroke="none" fill="#f4f4f4"><g><text style="font: 25px Roboto, sans-serif; white-space: pre;" font-size="25px" font-family="Roboto, sans-serif"><tspan x="15.5" y="42.5" dominant-baseline="ideographic">软件架构设计阶段与生命周期</tspan></text></g></g></g><g id="g-root-tx__zlxgbcj7bv2h-fill" data-item-order="0" transform="translate(63, 303)"><g id="tx__zlxgbcj7bv2h-fill" stroke="none" fill="#f4f4f4"><g><text style="font: 20px Roboto, sans-serif; white-space: pre;" font-size="20px" font-family="Roboto, sans-serif"><tspan x="14" y="33.5" dominant-baseline="ideographic">构件</tspan></text></g></g></g><g id="g-root-cu_1lu9x3sj7lp1h-fill" data-item-order="0" transform="translate(159, 264)"></g><g id="g-root-cu_1hegezcj7lpty-fill" data-item-order="0" transform="translate(235, 150)"></g><g id="g-root-cu_hx5c60j7lo99-fill" data-item-order="0" transform="translate(359, 501)"></g><g id="g-root-cu_1lu9x3sj7lp1e-fill" data-item-order="0" transform="translate(363, 276)"></g><g id="g-root-cu_znsvkoj7lp1l-fill" data-item-order="0" transform="translate(117, 291)"></g><g id="g-root-cu_v7zdg8j7lptw-fill" data-item-order="0" transform="translate(117, 291)"></g><g id="g-root-cu_mccd7cj7lqmm-fill" data-item-order="0" transform="translate(117, 291)"></g><g id="g-root-cu_qs5vbsj7lqm8-fill" data-item-order="0" transform="translate(117, 291)"></g><g id="g-root-cu_1cymwuwj7lqmc-fill" data-item-order="0" transform="translate(435, 303)"></g><g id="g-root-cu_znsvkoj7lp1j-fill" data-item-order="0" transform="translate(435, 303)"></g><g id="g-root-tx__hv9wwoj7bu9x-fill" data-item-order="0" transform="translate(103, 525)"><g id="tx__hv9wwoj7bu9x-fill" stroke="none" fill="#f4f4f4"><g><text style="font: 20px Roboto, sans-serif; white-space: pre;" font-size="20px" font-family="Roboto, sans-serif"><tspan x="12" y="33.5" dominant-baseline="ideographic">实现细节</tspan></text></g></g></g><g id="g-root-tx__141qyfsj7bua7-fill" data-item-order="0" transform="translate(459, 315)"><g id="tx__141qyfsj7bua7-fill" stroke="none" fill="#f4f4f4"><g><text style="font: 20px Roboto, sans-serif; white-space: pre;" font-size="20px" font-family="Roboto, sans-serif"><tspan x="12" y="33.5" dominant-baseline="ideographic">逻辑模型</tspan></text></g></g></g><g id="g-root-tx__v63y6wj7bvuq-fill" data-item-order="0" transform="translate(39, 339)"><g id="tx__v63y6wj7bvuq-fill" stroke="none" fill="#f4f4f4"><g><text style="font: 20px Roboto, sans-serif; white-space: pre;" font-size="20px" font-family="Roboto, sans-serif"><tspan x="16" y="33.5" dominant-baseline="ideographic">连接子</tspan></text></g></g></g><g id="g-root-tx__18hkgk8j7bu9s-fill" data-item-order="0" transform="translate(459, 351)"><g id="tx__18hkgk8j7bu9s-fill" stroke="none" fill="#f4f4f4"><g><text style="font: 20px Roboto, sans-serif; white-space: pre;" font-size="20px" font-family="Roboto, sans-serif"><tspan x="12" y="33.5" dominant-baseline="ideographic">物理模型</tspan></text></g></g></g><g id="g-root-tx__magxy0j7bwnf-fill" data-item-order="0" transform="translate(63, 375)"><g id="tx__magxy0j7bwnf-fill" stroke="none" fill="#f4f4f4"><g><text style="font: 20px Roboto, sans-serif; white-space: pre;" font-size="20px" font-family="Roboto, sans-serif"><tspan x="14" y="33.5" dominant-baseline="ideographic">配置</tspan></text></g></g></g><g id="g-root-tx__magxy0j7bwng-fill" data-item-order="0" transform="translate(39, 411)"><g id="tx__magxy0j7bwng-fill" stroke="none" fill="#f4f4f4"><g><text style="font: 20px Roboto, sans-serif; white-space: pre;" font-size="20px" font-family="Roboto, sans-serif"><tspan x="16" y="33.5" dominant-baseline="ideographic">多视角</tspan></text></g></g></g><g id="g-root-cu_1hegezcj7lpts-fill" data-item-order="0" transform="translate(235, 411)"></g><g id="g-root-cu_1hegezcj7lptv-fill" data-item-order="0" transform="translate(311, 411)"></g><g id="g-root-cu_qs5vbsj7lqma-fill" data-item-order="0" transform="translate(193, 513)"></g><g id="g-root-tx__hv9wwoj7bu9y-fill" data-item-order="0" transform="translate(383, 513)"><g id="tx__hv9wwoj7bu9y-fill" stroke="none" fill="#f4f4f4"><g><text style="font: 20px Roboto, sans-serif; white-space: pre;" font-size="20px" font-family="Roboto, sans-serif"><tspan x="14" y="33.5" dominant-baseline="ideographic">组装</tspan></text></g></g></g><g id="g-root-tx__1q87zywj7bv2c-fill" data-item-order="1000000000" transform="translate(383, 150)"><g id="tx__1q87zywj7bv2c-fill" stroke="none" fill="#2c2c2c"><g><text style="font: 20px Roboto, sans-serif; white-space: pre;" font-size="20px" font-family="Roboto, sans-serif"><tspan x="14" y="33.5" dominant-baseline="ideographic">后开发阶段</tspan></text></g></g></g><g id="g-root-code_1hckzq0j7bvv1-fill" data-item-order="1000000000" transform="translate(347, 147)"></g><g id="g-root-tx__4lotsoj7buv5-fill" data-item-order="1000000000" transform="translate(27, 252)"><g id="tx__4lotsoj7buv5-fill" stroke="none" fill="#2c2c2c"><g><text style="font: 20px Roboto, sans-serif; white-space: pre;" font-size="20px" font-family="Roboto, sans-serif"><tspan x="12" y="33.5" dominant-baseline="ideographic">设计阶段</tspan></text></g></g></g><g id="g-root-1_1ur5viwj7bvgq-fill" data-item-order="1000000000" transform="translate(117, 249)"></g><g id="g-root-bala_4ot0woj74u85-fill" data-item-order="1000000000" transform="translate(423, 261)"></g><g id="g-root-tx__hzn26wj74vt0-fill" data-item-order="1000000000" transform="translate(459, 264)"><g id="tx__hzn26wj74vt0-fill" stroke="none" fill="#2c2c2c"><g><text style="font: 20px Roboto, sans-serif; white-space: pre;" font-size="20px" font-family="Roboto, sans-serif"><tspan x="16" y="33.5" dominant-baseline="ideographic">需求分析阶段</tspan></text></g></g></g><g id="g-root-soft_1lt0pg8j7n4le-fill" data-item-order="1000000000" transform="translate(261, 285)"></g><g id="g-root-tx__1q8u7koj7n3t5-fill" data-item-order="1000000000" transform="translate(231, 339)"><g id="tx__1q8u7koj7n3t5-fill" stroke="none" fill="#2c2c2c"><g><text style="font: 20px Roboto, sans-serif; white-space: pre;" font-size="20px" font-family="Roboto, sans-serif"><tspan x="14" y="33.5" dominant-baseline="ideographic">软件架构设</tspan><tspan x="54" y="57.5" dominant-baseline="ideographic">计</tspan></text></g></g></g><g id="g-root-chec_3zwewj7lqtc-fill" data-item-order="1000000000" transform="translate(193, 135)"></g><g id="g-root-tx__4jtejcj7lq13-fill" data-item-order="1000000000" transform="translate(103, 138)"><g id="tx__4jtejcj7lq13-fill" stroke="none" fill="#2c2c2c"><g><text style="font: 20px Roboto, sans-serif; white-space: pre;" font-size="20px" font-family="Roboto, sans-serif"><tspan x="12" y="33.5" dominant-baseline="ideographic">部署阶段</tspan></text></g></g></g><g id="g-root-4_detujcj7db7q-fill" data-item-order="1000000000" transform="translate(347, 459)"></g><g id="g-root-tx__1ha33dkj7hibw-fill" data-item-order="1000000000" transform="translate(103, 474)"><g id="tx__1ha33dkj7hibw-fill" stroke="none" fill="#2c2c2c"><g><text style="font: 20px Roboto, sans-serif; white-space: pre;" font-size="20px" font-family="Roboto, sans-serif"><tspan x="12" y="33.5" dominant-baseline="ideographic">实现阶段</tspan></text></g></g></g><g id="g-root-exch_1cu9l94j7hj45-fill" data-item-order="1000000000" transform="translate(193, 471)"></g><g id="g-root-tx__v63v14j7d8ul-fill" data-item-order="1000000000" transform="translate(383, 462)"><g id="tx__v63v14j7d8ul-fill" stroke="none" fill="#2c2c2c"><g><text style="font: 20px Roboto, sans-serif; white-space: pre;" font-size="20px" font-family="Roboto, sans-serif"><tspan x="16" y="33.5" dominant-baseline="ideographic">构建组装阶段</tspan></text></g></g></g><g id="g-root-tf_5vbo8j7lqmn-stroke" data-item-order="-385416" transform="translate(-9, -9)"></g><g id="g-root-ro_1lt0pg8j7n4lf-stroke" data-item-order="-23400" transform="translate(207, 261)"><g id="ro_1lt0pg8j7n4lf-stroke" fill="none" stroke-linecap="round" stroke-linejoin="round" stroke-miterlimit="4" stroke="#2c2c2c" stroke-width="2"><g><path d="M 34 10L 142 10C 142 10 166 10 166 34L 166 136C 166 136 166 160 142 160L 34 160C 34 160 10 160 10 136L 10 34C 10 34 10 10 34 10"></path></g></g></g><g id="g-root-ro_3zt94j7d9mv-stroke" data-item-order="-10368" transform="translate(335, 447)"><g id="ro_3zt94j7d9mv-stroke" fill="none" stroke-linecap="round" stroke-linejoin="round" stroke-miterlimit="4" stroke="#2c2c2c" stroke-width="2"><g><path d="M 22 10L 190 10C 190 10 202 10 202 22L 202 52C 202 52 202 64 190 64L 22 64C 22 64 10 64 10 52L 10 22C 10 22 10 10 22 10"></path></g></g></g><g id="g-root-ro_1uua2mwj74utq-stroke" data-item-order="-10368" transform="translate(411, 249)"><g id="ro_1uua2mwj74utq-stroke" fill="none" stroke-linecap="round" stroke-linejoin="round" stroke-miterlimit="4" stroke="#2c2c2c" stroke-width="2"><g><path d="M 22 10L 190 10C 190 10 202 10 202 22L 202 52C 202 52 202 64 190 64L 22 64C 22 64 10 64 10 52L 10 22C 10 22 10 10 22 10"></path></g></g></g><g id="g-root-ro_1cwrhlkj7bwna-stroke" data-item-order="-9072" transform="translate(335, 135)"><g id="ro_1cwrhlkj7bwna-stroke" fill="none" stroke-linecap="round" stroke-linejoin="round" stroke-miterlimit="4" stroke="#2c2c2c" stroke-width="2"><g><path d="M 22 10L 166 10C 166 10 178 10 178 22L 178 52C 178 52 178 64 166 64L 22 64C 22 64 10 64 10 52L 10 22C 10 22 10 10 22 10"></path></g></g></g><g id="g-root-ro_1qa3f88j7lo95-stroke" data-item-order="-7776" transform="translate(91, 123)"><g id="ro_1qa3f88j7lo95-stroke" fill="none" stroke-linecap="round" stroke-linejoin="round" stroke-miterlimit="4" stroke="#2c2c2c" stroke-width="2"><g><path d="M 22 10L 142 10C 142 10 154 10 154 22L 154 52C 154 52 154 64 142 64L 22 64C 22 64 10 64 10 52L 10 22C 10 22 10 10 22 10"></path></g></g></g><g id="g-root-ro_13z923cj7hgr2-stroke" data-item-order="-7776" transform="translate(91, 459)"><g id="ro_13z923cj7hgr2-stroke" fill="none" stroke-linecap="round" stroke-linejoin="round" stroke-miterlimit="4" stroke="#2c2c2c" stroke-width="2"><g><path d="M 22 10L 142 10C 142 10 154 10 154 22L 154 52C 154 52 154 64 142 64L 22 64C 22 64 10 64 10 52L 10 22C 10 22 10 10 22 10"></path></g></g></g><g id="g-root-ro_1qbcdegj7bw8z-stroke" data-item-order="-7776" transform="translate(15, 237)"><g id="ro_1qbcdegj7bw8z-stroke" fill="none" stroke-linecap="round" stroke-linejoin="round" stroke-miterlimit="4" stroke="#2c2c2c" stroke-width="2"><g><path d="M 22 10L 142 10C 142 10 154 10 154 22L 154 52C 154 52 154 64 142 64L 22 64C 22 64 10 64 10 52L 10 22C 10 22 10 10 22 10"></path></g></g></g><g id="g-root-cu_1cymwuwj7lqm9-stroke" data-item-order="0" transform="translate(311, 162)"><g id="cu_1cymwuwj7lqm9-stroke" fill="none" stroke-linecap="round" stroke-linejoin="round" stroke-miterlimit="4" stroke="#f4f4f4" stroke-width="2" stroke-dasharray="5.0, 7.0"><g><path d="M 10 109L 10 96.6L 10 30.9C 10 19.357248 19.357248 10 30.899998 10L 31 10L 34 10"></path></g></g></g><g id="g-root-tx__8zmwnsj7bv2n-stroke" data-item-order="0" transform="translate(139, 189)"></g><g id="g-root-cu_mcyuagj7lo8w-stroke" data-item-order="0" transform="translate(193, 177)"><g id="cu_mcyuagj7lo8w-stroke" fill="none" stroke-linecap="round" stroke-linejoin="round" stroke-miterlimit="4" stroke="#f4f4f4" stroke-width="2" stroke-dasharray="5.0, 7.0"><g><path d="M 28 10L 28 13L 28 22C 27.999999 28.627417 22.627416 34 15.999999 34L 15.9 34L 10 34"></path></g></g></g><g id="g-root-cu_dhbu1kj7lp1n-stroke" data-item-order="0" transform="translate(359, 189)"><g id="cu_dhbu1kj7lp1n-stroke" fill="none" stroke-linecap="round" stroke-linejoin="round" stroke-miterlimit="4" stroke="#f4f4f4" stroke-width="2" stroke-dasharray="5.0, 7.0"><g><path d="M 10 10L 10 13L 10 22C 10 28.627416 15.372583 33.999999 22 33.999999L 22.1 34L 28 34"></path></g></g></g><g id="g-root-tx__4jtejcj7bvuw-stroke" data-item-order="0" transform="translate(383, 201)"></g><g id="g-root-tx__91ibx4j7lpty-stroke" data-item-order="0" transform="translate(141, 39)"></g><g id="g-root-tx__zlxgbcj7bv2h-stroke" data-item-order="0" transform="translate(63, 303)"></g><g id="g-root-cu_1lu9x3sj7lp1h-stroke" data-item-order="0" transform="translate(159, 264)"><g id="cu_1lu9x3sj7lp1h-stroke" fill="none" stroke-linecap="round" stroke-linejoin="round" stroke-miterlimit="4" stroke="#f4f4f4" stroke-width="2" stroke-dasharray="5.0, 7.0"><g><path d="M 58 57L 55 57L 54.9 57C 43.357246 56.999996 33.999999 47.642748 33.999998 36.099998L 34 36L 34 30.9C 33.999998 19.357248 24.64275 10 13.1 10L 13 10L 10 10"></path></g></g></g><g id="g-root-cu_1hegezcj7lpty-stroke" data-item-order="0" transform="translate(235, 150)"><g id="cu_1hegezcj7lpty-stroke" fill="none" stroke-linecap="round" stroke-linejoin="round" stroke-miterlimit="4" stroke="#f4f4f4" stroke-width="2" stroke-dasharray="5.0, 7.0"><g><path d="M 34 121L 34 107.1L 34 30.9C 33.999998 19.357248 24.64275 10 13.1 10L 13 10L 10 10"></path></g></g></g><g id="g-root-cu_hx5c60j7lo99-stroke" data-item-order="0" transform="translate(359, 501)"><g id="cu_hx5c60j7lo99-stroke" fill="none" stroke-linecap="round" stroke-linejoin="round" stroke-miterlimit="4" stroke="#f4f4f4" stroke-width="2" stroke-dasharray="5.0, 7.0"><g><path d="M 10 10L 10 13L 10 22C 10 28.627416 15.372583 33.999999 22 33.999999L 22.1 34L 28 34"></path></g></g></g><g id="g-root-cu_1lu9x3sj7lp1e-stroke" data-item-order="0" transform="translate(363, 276)"><g id="cu_1lu9x3sj7lp1e-stroke" fill="none" stroke-linecap="round" stroke-linejoin="round" stroke-miterlimit="4" stroke="#f4f4f4" stroke-width="2" stroke-dasharray="5.0, 7.0"><g><path d="M 10 45L 13 45L 13.1 45C 17.577866 44.972592 22.360217 43.214375 26.699999 40C 29.320119 38.118536 31.98143 33.561497 33.999999 27.499999C 36.018569 21.438502 38.67988 16.881462 41.299999 15C 45.63978 11.785625 50.422131 10.027407 54.899998 9.999999L 55 10L 58 10"></path></g></g></g><g id="g-root-cu_znsvkoj7lp1l-stroke" data-item-order="0" transform="translate(117, 291)"><g id="cu_znsvkoj7lp1l-stroke" fill="none" stroke-linecap="round" stroke-linejoin="round" stroke-miterlimit="4" stroke="#f4f4f4" stroke-width="2" stroke-dasharray="5.0, 7.0"><g><path d="M 28 10L 28 22L 28 34L 19 34L 10 34"></path></g></g></g><g id="g-root-cu_v7zdg8j7lptw-stroke" data-item-order="0" transform="translate(117, 291)"><g id="cu_v7zdg8j7lptw-stroke" fill="none" stroke-linecap="round" stroke-linejoin="round" stroke-miterlimit="4" stroke="#f4f4f4" stroke-width="2" stroke-dasharray="5.0, 7.0"><g><path d="M 28 10L 28 40L 28 70L 19 70L 10 70"></path></g></g></g><g id="g-root-cu_mccd7cj7lqmm-stroke" data-item-order="0" transform="translate(117, 291)"><g id="cu_mccd7cj7lqmm-stroke" fill="none" stroke-linecap="round" stroke-linejoin="round" stroke-miterlimit="4" stroke="#f4f4f4" stroke-width="2" stroke-dasharray="5.0, 7.0"><g><path d="M 28 10L 28 58L 28 106L 19 106L 10 106"></path></g></g></g><g id="g-root-cu_qs5vbsj7lqm8-stroke" data-item-order="0" transform="translate(117, 291)"><g id="cu_qs5vbsj7lqm8-stroke" fill="none" stroke-linecap="round" stroke-linejoin="round" stroke-miterlimit="4" stroke="#f4f4f4" stroke-width="2" stroke-dasharray="5.0, 7.0"><g><path d="M 28 10L 28 26.5L 28 130C 28.000005 136.627421 22.627422 142.000005 16.000005 142.000005L 15.9 142L 10 142"></path></g></g></g><g id="g-root-cu_1cymwuwj7lqmc-stroke" data-item-order="0" transform="translate(435, 303)"><g id="cu_1cymwuwj7lqmc-stroke" fill="none" stroke-linecap="round" stroke-linejoin="round" stroke-miterlimit="4" stroke="#f4f4f4" stroke-width="2" stroke-dasharray="5.0, 7.0"><g><path d="M 10 10L 10 22L 10 34L 19 34L 28 34"></path></g></g></g><g id="g-root-cu_znsvkoj7lp1j-stroke" data-item-order="0" transform="translate(435, 303)"><g id="cu_znsvkoj7lp1j-stroke" fill="none" stroke-linecap="round" stroke-linejoin="round" stroke-miterlimit="4" stroke="#f4f4f4" stroke-width="2" stroke-dasharray="5.0, 7.0"><g><path d="M 10 10L 10 17.5L 10 58C 10.000002 64.627417 15.372585 70 22.000002 69.999999L 22.1 70L 28 70"></path></g></g></g><g id="g-root-tx__hv9wwoj7bu9x-stroke" data-item-order="0" transform="translate(103, 525)"></g><g id="g-root-tx__141qyfsj7bua7-stroke" data-item-order="0" transform="translate(459, 315)"></g><g id="g-root-tx__v63y6wj7bvuq-stroke" data-item-order="0" transform="translate(39, 339)"></g><g id="g-root-tx__18hkgk8j7bu9s-stroke" data-item-order="0" transform="translate(459, 351)"></g><g id="g-root-tx__magxy0j7bwnf-stroke" data-item-order="0" transform="translate(63, 375)"></g><g id="g-root-tx__magxy0j7bwng-stroke" data-item-order="0" transform="translate(39, 411)"></g><g id="g-root-cu_1hegezcj7lpts-stroke" data-item-order="0" transform="translate(235, 411)"><g id="cu_1hegezcj7lpts-stroke" fill="none" stroke-linecap="round" stroke-linejoin="round" stroke-miterlimit="4" stroke="#f4f4f4" stroke-width="2" stroke-dasharray="5.0, 7.0"><g><path d="M 34 10L 34 19.4L 34 64.1C 33.999997 75.642751 24.642748 84.999999 13.099997 84.999998L 13 85L 10 85"></path></g></g></g><g id="g-root-cu_1hegezcj7lptv-stroke" data-item-order="0" transform="translate(311, 411)"><g id="cu_1hegezcj7lptv-stroke" fill="none" stroke-linecap="round" stroke-linejoin="round" stroke-miterlimit="4" stroke="#f4f4f4" stroke-width="2" stroke-dasharray="5.0, 7.0"><g><path d="M 10 10L 10 17.9L 10 52.1C 9.999998 63.64275 19.357246 72.999999 30.899997 72.999999L 31 73L 34 73"></path></g></g></g><g id="g-root-cu_qs5vbsj7lqma-stroke" data-item-order="0" transform="translate(193, 513)"><g id="cu_qs5vbsj7lqma-stroke" fill="none" stroke-linecap="round" stroke-linejoin="round" stroke-miterlimit="4" stroke="#f4f4f4" stroke-width="2" stroke-dasharray="5.0, 7.0"><g><path d="M 28 10L 28 13L 28 22C 27.999999 28.627417 22.627416 34 15.999999 34L 15.9 34L 10 34"></path></g></g></g><g id="g-root-tx__hv9wwoj7bu9y-stroke" data-item-order="0" transform="translate(383, 513)"></g><g id="g-root-tx__1q87zywj7bv2c-stroke" data-item-order="1000000000" transform="translate(383, 150)"></g><g id="g-root-code_1hckzq0j7bvv1-stroke" data-item-order="1000000000" transform="translate(347, 147)"><g id="code_1hckzq0j7bvv1-stroke" fill="none" stroke-linecap="round" stroke-linejoin="round" stroke-miterlimit="4" stroke="#2c2c2c" stroke-width="2"><g><path d="M 21.437525 15.109387L 21.437525 12.234387C 21.437525 11.484387 21.937525 10.984383 22.6875 10.984383L 34.6875 10.984383C 34.9375 10.984383 35.3125 11.109383 35.4375 11.234383L 38.4375 13.734387C 38.6875 13.984387 38.9375 14.359387 38.9375 14.734387L 38.9375 30.359375C 38.9375 31.109375 38.4375 31.609375 37.6875 31.609375L 28.3125 31.609375M 10 10M 26.4375 16.234364L 24.5625 18.109364L 26.4375 19.984364M 10 10M 33.9375 16.234364L 35.8125 18.109364L 33.9375 19.984364M 10 10M 28.9375 20.6094L 31.4375 14.9844M 26.9375 39.015625C 25.8125 35.765625 22.6875 33.390625 19.062475 33.390625C 15.437475 33.390625 12.187475 35.765625 11.06247 39.015625M 18.9375 22.140614L 18.9375 18.390614M 12.062375 25.765625L 25.812376 25.765625M 13.812375 27.140625C 13.937375 29.890625 16.187376 32.140625 18.937374 32.140625C 21.812374 32.140625 24.062374 29.890625 24.062374 27.015625L 24.062374 24.765625C 24.062374 21.890614 21.812374 19.640614 18.937374 19.640614C 16.187376 19.640614 13.937375 21.890614 13.812375 24.640625L 13.812375 27.140625Z"></path></g></g></g><g id="g-root-tx__4lotsoj7buv5-stroke" data-item-order="1000000000" transform="translate(27, 252)"></g><g id="g-root-1_1ur5viwj7bvgq-stroke" data-item-order="1000000000" transform="translate(117, 249)"><g id="1_1ur5viwj7bvgq-stroke" fill="none" stroke-linecap="round" stroke-linejoin="round" stroke-miterlimit="4" stroke="#2c2c2c" stroke-width="2"><g><path d="M 34.375 25.625L 34.375 18.0975C 34.377071 13.971159 31.032591 10.624999 26.90625 10.625L 11.875 10.625C 11.184644 10.625 10.625 11.184644 10.625 11.875L 10.625 38.125C 10.625 38.815353 11.184644 39.375 11.875 39.375L 15.625 39.375M 28.125 10.73L 28.125 15.625C 28.125 16.315355 28.684643 16.875 29.375 16.875L 34.275002 16.875M 19.375 29.375C 22.136423 29.375 24.375 31.613577 24.375 34.375C 24.375 37.136425 22.136423 39.375 19.375 39.375ZM 26.875 39.375L 26.875 31.875C 26.875 30.494287 27.994287 29.375 29.375 29.375C 30.755713 29.375 31.875 30.494287 31.875 31.875L 31.875 39.375M 26.875 34.380001L 31.875 34.380001M 34.375 29.379999L 39.375 29.379999M 36.875 29.379999L 36.875 39.380001"></path></g></g></g><g id="g-root-bala_4ot0woj74u85-stroke" data-item-order="1000000000" transform="translate(423, 261)"><g id="bala_4ot0woj74u85-stroke" fill="none" stroke-linecap="round" stroke-linejoin="round" stroke-miterlimit="4" stroke="#2c2c2c" stroke-width="2"><g><path d="M 19.6875 28.1875C 19.6875 28.9375 19.1875 29.4375 18.4375 29.4375L 12.1875 29.4375C 11.4375 29.4375 10.9375 28.9375 10.9375 28.1875L 10.9375 21.937563C 10.9375 21.187563 11.4375 20.687563 12.1875 20.687563L 18.4375 20.687563C 19.1875 20.687563 19.6875 21.187563 19.6875 21.937563L 19.6875 28.1875ZM 39.0625 27.1875C 39.0625 27.9375 38.5625 28.4375 37.8125 28.4375L 33.4375 28.4375C 32.6875 28.4375 32.1875 27.9375 32.1875 27.1875L 32.1875 22.8125C 32.1875 22.0625 32.6875 21.5625 33.4375 21.5625L 37.8125 21.5625C 38.5625 21.5625 39.0625 22.0625 39.0625 22.8125L 39.0625 27.1875ZM 39.0625 16.5625C 39.0625 17.3125 38.5625 17.8125 37.8125 17.8125L 33.4375 17.8125C 32.6875 17.8125 32.1875 17.3125 32.1875 16.5625L 32.1875 12.1875C 32.1875 11.4375 32.6875 10.9375 33.4375 10.9375L 37.8125 10.9375C 38.5625 10.9375 39.0625 11.4375 39.0625 12.1875L 39.0625 16.5625ZM 39.0625 37.8125C 39.0625 38.5625 38.5625 39.0625 37.8125 39.0625L 33.4375 39.0625C 32.6875 39.0625 32.1875 38.5625 32.1875 37.8125L 32.1875 33.4375C 32.1875 32.6875 32.6875 32.1875 33.4375 32.1875L 37.8125 32.1875C 38.5625 32.1875 39.0625 32.6875 39.0625 33.4375L 39.0625 37.8125ZM 19.048 20.820313L 28.3125 14.6875M 10 10M 19.6875 25.0625L 28.4375 25.0625M 10 10M 25.6875 22.1875L 28.4375 25.0625L 25.6875 27.8125M 10 10M 24.5625 13.812563L 28.4375 14.687563L 27.5625 18.56255M 10 10M 19.048 29.304501L 28.3125 35.437374M 10 10M 24.5625 36.3125L 28.4375 35.4375L 27.5625 31.5625"></path></g></g></g><g id="g-root-tx__hzn26wj74vt0-stroke" data-item-order="1000000000" transform="translate(459, 264)"></g><g id="g-root-soft_1lt0pg8j7n4le-stroke" data-item-order="1000000000" transform="translate(261, 285)"><g id="soft_1lt0pg8j7n4le-stroke" fill="none" stroke-linecap="round" stroke-linejoin="round" stroke-miterlimit="4" stroke="#2c2c2c" stroke-width="2"><g><path d="M 10 10M 34 26L 26 34L 35.700001 43.700001C 37.373207 45.369617 38.313507 47.636265 38.313507 50C 38.313507 52.363735 37.373207 54.630379 35.699997 56.299999C 34.757553 57.230236 33.242451 57.230236 32.300003 56.300003L 11.7 35.700001C 10.769766 34.757553 10.769766 33.242451 11.7 32.300003L 32.299999 11.7C 32.752522 11.252122 33.363316 11.000619 34 11M 10 10M 34 42L 42 34L 32.299999 24.299999C 30.626793 22.630381 29.686493 20.363735 29.686493 18C 29.686493 15.636263 30.626793 13.369619 32.299999 11.7C 33.242451 10.769766 34.757553 10.769766 35.700001 11.7L 56.299999 32.299999C 57.230236 33.242451 57.230236 34.757553 56.300003 35.700001L 35.700001 56.299999C 35.247482 56.747879 34.636688 56.999382 34 57.000004"></path></g></g></g><g id="g-root-tx__1q8u7koj7n3t5-stroke" data-item-order="1000000000" transform="translate(231, 339)"></g><g id="g-root-chec_3zwewj7lqtc-stroke" data-item-order="1000000000" transform="translate(193, 135)"><g id="chec_3zwewj7lqtc-stroke" fill="none" stroke-linecap="round" stroke-linejoin="round" stroke-miterlimit="4" stroke="#2c2c2c" stroke-width="2"><g><path d="M 32.4375 19.000088L 17.437511 19.000088L 17.437511 39.000126L 32.4375 39.000126L 32.4375 19.000088ZM 34.9375 25.999874L 38.9375 25.999874M 34.9375 30.999874L 38.9375 30.999874M 34.9375 35.999874L 37.6875 35.999874C 38.4375 35.999874 38.9375 35.499874 38.9375 34.749874L 38.9375 22.249912C 38.9375 21.499912 38.4375 20.999912 37.6875 20.999912L 34.9375 20.999912M 18.062511 25.624874L 32.4375 25.624874M 18.062511 32.499878L 32.4375 32.499878M 14.937488 25.999874L 10.9375 25.999874M 14.937488 30.999874L 10.9375 30.999874M 14.9375 35.999874L 12.1875 35.999874C 11.4375 35.999874 10.9375 35.499874 10.9375 34.749874L 10.9375 22.249912C 10.9375 21.499912 11.4375 20.999912 12.1875 20.999912L 14.9375 20.999912M 10 10M 23.0625 12.249912L 24.9375 13.9999L 28.0625 10.999908"></path></g></g></g><g id="g-root-tx__4jtejcj7lq13-stroke" data-item-order="1000000000" transform="translate(103, 138)"></g><g id="g-root-4_detujcj7db7q-stroke" data-item-order="1000000000" transform="translate(347, 459)"><g id="4_detujcj7db7q-stroke" fill="none" stroke-linecap="round" stroke-linejoin="round" stroke-miterlimit="4" stroke="#2c2c2c" stroke-width="2"><g><path d="M 38.661251 38.946251C 37.753548 36.576172 35.467392 35.02079 32.929581 35.046707C 30.391766 35.072628 28.137856 36.674381 27.278749 39.0625M 37.256248 28.955C 37.282631 30.495913 36.475662 31.9312 35.145416 32.709373C 33.815166 33.487545 32.168583 33.487545 30.838337 32.709373C 29.508089 31.9312 28.701122 30.495913 28.727501 28.955M 34.4725 23.70875C 36.484051 24.359247 37.847069 26.232138 37.847504 28.346251M 28.096251 28.955L 28.096251 28.346251C 28.096268 26.108377 29.619925 24.157932 31.79125 23.616251M 26.877501 28.955L 39.0625 28.955M 24.15 32.099998L 23.24 31.091249C 22.880028 30.693302 22.368479 30.466249 21.831875 30.466249C 21.295271 30.466249 20.783722 30.693302 20.42375 31.091249L 19.512501 32.099998C 18.97444 32.694984 18.120354 32.887321 17.379189 32.580421C 16.638023 32.273518 16.169931 31.533691 16.209999 30.732498L 16.280001 29.375C 16.307205 28.839008 16.106165 28.316565 15.726675 27.937075C 15.347184 27.557585 14.82474 27.356544 14.28875 27.383749L 12.93125 27.452499C 12.129374 27.494091 11.388228 27.026127 11.081036 26.28426C 10.773843 25.542391 10.967205 24.687466 11.56375 24.15L 12.5725 23.24C 12.970448 22.880028 13.197501 22.368479 13.197501 21.831875C 13.197501 21.295271 12.970448 20.783722 12.5725 20.42375L 11.56375 19.51375C 10.967737 18.975885 10.774721 18.12114 11.081765 17.379349C 11.388809 16.63756 12.129458 16.169279 12.93125 16.209999L 14.28875 16.280001C 14.824632 16.306808 15.346841 16.10564 15.72624 15.72624C 16.10564 15.346841 16.306808 14.824632 16.280001 14.28875L 16.209999 12.93125C 16.169931 12.130057 16.638023 11.390229 17.379189 11.083327C 18.120354 10.776425 18.97444 10.968766 19.512499 11.56375L 20.42375 12.5725C 20.783722 12.970448 21.295271 13.197501 21.831875 13.197501C 22.368479 13.197501 22.880028 12.970448 23.24 12.5725L 24.15 11.56375C 24.687466 10.967205 25.542391 10.773843 26.28426 11.081036C 27.026127 11.388228 27.494091 12.129374 27.452499 12.93125L 27.383749 14.28875C 27.356544 14.82474 27.557585 15.347184 27.937075 15.726675C 28.316565 16.106165 28.839008 16.307205 29.374998 16.279999L 30.7325 16.209999C 31.53429 16.169279 32.27494 16.63756 32.581985 17.379349C 32.889027 18.12114 32.696011 18.975885 32.099998 19.51375L 31.091249 20.42375M 17.473751 21.831249C 17.473751 24.237831 19.424669 26.188751 21.831251 26.188751C 24.237831 26.188751 26.188751 24.237831 26.188751 21.831251C 26.188751 19.424669 24.237831 17.473751 21.831251 17.473751C 19.424669 17.473751 17.473751 19.424669 17.473751 21.831251M 33.983749 25.88625L 32.108749 25.88625L 31.689999 22.934999C 31.664495 22.754688 31.718903 22.57222 31.838991 22.43532C 31.959078 22.29842 32.132904 22.220705 32.314999 22.2225L 33.785 22.2225C 33.967098 22.220705 34.140923 22.29842 34.261009 22.43532C 34.381096 22.57222 34.435505 22.754688 34.41 22.934999Z"></path></g></g></g><g id="g-root-tx__1ha33dkj7hibw-stroke" data-item-order="1000000000" transform="translate(103, 474)"></g><g id="g-root-exch_1cu9l94j7hj45-stroke" data-item-order="1000000000" transform="translate(193, 471)"><g id="exch_1cu9l94j7hj45-stroke" fill="none" stroke-linecap="round" stroke-linejoin="round" stroke-miterlimit="4" stroke="#2c2c2c" stroke-width="2"><g><path d="M 15.625 20.625L 15.625 17.8125C 15.624667 16.568546 16.118937 15.375501 16.998896 14.496243C 17.878857 13.616987 19.072296 13.123672 20.31625 13.125L 22.5 13.125M 18.12875 18.125L 15.62875 20.625L 13.12875 18.125M 20.62875 11.25L 22.50375 13.125L 20.62875 15M 39.375 13.125C 39.375 14.505712 38.255714 15.625 36.875 15.625L 30.625 15.625C 29.244287 15.625 28.125 14.505712 28.125 13.125C 28.125 11.744288 29.244287 10.625 30.625 10.625L 36.875 10.625C 38.255714 10.625 39.375 11.744288 39.375 13.125ZM 31.5625 12.8125C 31.389912 12.8125 31.25 12.952411 31.25 13.125C 31.25 13.297589 31.389912 13.4375 31.5625 13.4375C 31.735088 13.4375 31.875 13.297589 31.875 13.125C 31.875 12.952411 31.735088 12.8125 31.5625 12.8125L 31.5625 12.8125M 39.375 18.125C 39.375 19.505713 38.255714 20.625 36.875 20.625L 30.625 20.625C 29.244287 20.625 28.125 19.505713 28.125 18.125C 28.125 16.744287 29.244287 15.625 30.625 15.625L 36.875 15.625C 38.255714 15.625 39.375 16.744287 39.375 18.125ZM 31.5625 17.8125C 31.389912 17.8125 31.25 17.952412 31.25 18.125C 31.25 18.297588 31.389912 18.4375 31.5625 18.4375C 31.735088 18.4375 31.875 18.297588 31.875 18.125C 31.875 17.952412 31.735088 17.8125 31.5625 17.8125L 31.5625 17.8125M 39.375 23.125C 39.375 24.505713 38.255714 25.625 36.875 25.625L 30.625 25.625C 29.244287 25.625 28.125 24.505713 28.125 23.125C 28.125 21.744287 29.244287 20.625 30.625 20.625L 36.875 20.625C 38.255714 20.625 39.375 21.744287 39.375 23.125ZM 31.5625 22.8125C 31.389912 22.8125 31.25 22.952412 31.25 23.125C 31.25 23.297588 31.389912 23.4375 31.5625 23.4375C 31.735088 23.4375 31.875 23.297588 31.875 23.125C 31.875 22.952412 31.735088 22.8125 31.5625 22.8125L 31.5625 22.8125M 21.875 26.875C 21.875 28.255713 20.755713 29.375 19.375 29.375L 13.125 29.375C 11.744288 29.375 10.625 28.255713 10.625 26.875C 10.625 25.494287 11.744288 24.375 13.125 24.375L 19.375 24.375C 20.755713 24.375 21.875 25.494287 21.875 26.875ZM 14.0625 26.5625C 13.889911 26.5625 13.75 26.702412 13.75 26.875C 13.75 27.047588 13.889911 27.1875 14.0625 27.1875C 14.235089 27.1875 14.375 27.047588 14.375 26.875C 14.375 26.702412 14.235089 26.5625 14.0625 26.5625L 14.0625 26.5625M 21.875 31.875C 21.875 33.255714 20.755713 34.375 19.375 34.375L 13.125 34.375C 11.744288 34.375 10.625 33.255714 10.625 31.875C 10.625 30.494287 11.744288 29.375 13.125 29.375L 19.375 29.375C 20.755713 29.375 21.875 30.494287 21.875 31.875ZM 14.0625 31.5625C 13.889911 31.5625 13.75 31.702412 13.75 31.875C 13.75 32.047588 13.889911 32.1875 14.0625 32.1875C 14.235089 32.1875 14.375 32.047588 14.375 31.875C 14.375 31.702412 14.235089 31.5625 14.0625 31.5625L 14.0625 31.5625M 21.875 36.875C 21.875 38.255714 20.755713 39.375 19.375 39.375L 13.125 39.375C 11.744288 39.375 10.625 38.255714 10.625 36.875C 10.625 35.494286 11.744288 34.375 13.125 34.375L 19.375 34.375C 20.755713 34.375 21.875 35.494286 21.875 36.875ZM 14.0625 36.5625C 13.889911 36.5625 13.75 36.702412 13.75 36.875C 13.75 37.047588 13.889911 37.1875 14.0625 37.1875C 14.235089 37.1875 14.375 37.047588 14.375 36.875C 14.375 36.702412 14.235089 36.5625 14.0625 36.5625L 14.0625 36.5625"></path></g></g></g><g id="g-root-tx__v63v14j7d8ul-stroke" data-item-order="1000000000" transform="translate(383, 462)"></g></g></g></svg>